<?xml version="1.0" encoding="utf-8"?><svg xmlns="http://www.w3.org/2000/svg" xmlns:xlink="http://www.w3.org/1999/xlink"><symbol viewBox="0 0 512 512" id="clock" xmlns="http://www.w3.org/2000/svg"><path d="M256 0C114.848 0 0 114.848 0 256s114.848 256 256 256 256-114.848 256-256S397.152 0 256 0zm0 490.668c-129.398 0-234.668-105.27-234.668-234.668S126.602 21.332 256 21.332 490.668 126.602 490.668 256 385.398 490.668 256 490.668zm0 0"/><path d="M458.656 322.836c7.082-21.504 10.676-43.988 10.676-66.836 0-117.633-95.7-213.332-213.332-213.332S42.668 138.368 42.668 256 138.368 469.332 256 469.332c82.441 0 158.324-48.266 193.3-122.965l-19.327-9.043c-8.063 17.227-18.57 32.852-30.942 46.621l-14.816-14.804-15.086 15.082 14.742 14.73c-26.816 23.895-60.02 40.11-95.871 46.23v-18.515h-21.332v20.95c-3.543.19-7.094.382-10.668.382-3.605 0-7.113-.34-10.668-.543v-20.789H224v18.441c-36.457-6.156-69.375-22.57-95.797-46.23l14.668-14.664-15.086-15.086-14.664 14.668c-28.203-31.5-46.09-72.246-48.578-117.129h20.789v-21.336H64.543c2.488-44.883 20.375-85.629 48.578-117.129l14.664 14.668 15.086-15.086-14.668-14.664c26.422-23.66 59.34-40.074 95.797-46.23v18.441h21.332V64.543C248.887 64.34 252.395 64 256 64s7.113.34 10.668.543v20.789H288V66.891c36.457 6.156 69.375 22.57 95.797 46.23l-14.668 14.664 15.086 15.086 14.664-14.668c28.203 31.5 46.09 72.246 48.578 117.129h-20.789v21.336h20.918c-.93 16.894-3.926 33.504-9.195 49.48zm0 0"/><path d="M355.125 141.793L256 240.918l-77.793-77.793-15.082 15.082L240.918 256l-13.793 13.793 15.082 15.082L256 271.082l13.793 13.793 15.082-15.082L271.082 256l99.125-99.125zm0 0"/></symbol><symbol viewBox="0 0 24 24" id="facebook" xmlns="http://www.w3.org/2000/svg"><path d="M15.997 3.985h2.191V.169C17.81.117 16.51 0 14.996 0c-3.159 0-5.323 1.987-5.323 5.639V9H6.187v4.266h3.486V24h4.274V13.267h3.345l.531-4.266h-3.877V6.062c.001-1.233.333-2.077 2.051-2.077z"/></symbol><symbol viewBox="0 0 96.828 96.827" id="google-plus" xmlns="http://www.w3.org/2000/svg"><path d="M62.617 0H39.525c-10.29 0-17.413 2.256-23.824 7.552-5.042 4.35-8.051 10.672-8.051 16.912 0 9.614 7.33 19.831 20.913 19.831 1.306 0 2.752-.134 4.028-.253l-.188.457c-.546 1.308-1.063 2.542-1.063 4.468 0 3.75 1.809 6.063 3.558 8.298l.22.283-.391.027c-5.609.384-16.049 1.1-23.675 5.787-9.007 5.355-9.707 13.145-9.707 15.404 0 8.988 8.376 18.06 27.09 18.06 21.76 0 33.146-12.005 33.146-23.863.002-8.771-5.141-13.101-10.6-17.698l-4.605-3.582c-1.423-1.179-3.195-2.646-3.195-5.364 0-2.672 1.772-4.436 3.336-5.992l.163-.165c4.973-3.917 10.609-8.358 10.609-17.964 0-9.658-6.035-14.649-8.937-17.048h7.663a.488.488 0 00.266-.077l6.601-4.15A.5.5 0 0062.617 0zM34.614 91.535c-13.264 0-22.176-6.195-22.176-15.416 0-6.021 3.645-10.396 10.824-12.997 5.749-1.935 13.17-2.031 13.244-2.031 1.257 0 1.889 0 2.893.126 9.281 6.605 13.743 10.073 13.743 16.678-.001 8.414-7.101 13.64-18.528 13.64zm-.125-50.779c-11.132 0-15.752-14.633-15.752-22.468 0-3.984.906-7.042 2.77-9.351 2.023-2.531 5.487-4.166 8.825-4.166 10.221 0 15.873 13.738 15.873 23.233 0 1.498 0 6.055-3.148 9.22-2.117 2.113-5.56 3.532-8.568 3.532zm60.493 4.467H82.814V33.098a.5.5 0 00-.5-.5H77.08a.5.5 0 00-.5.5v12.125H64.473a.5.5 0 00-.5.5v5.304a.5.5 0 00.5.5H76.58V63.73a.5.5 0 00.5.5h5.234c.275 0 .5-.225.5-.5V51.525h12.168a.5.5 0 00.5-.5v-5.302c0-.277-.223-.5-.5-.5z"/></symbol><symbol viewBox="0 0 511 511.9" id="instagram" xmlns="http://www.w3.org/2000/svg"><path d="M510.95 150.5c-1.2-27.2-5.598-45.898-11.9-62.102-6.5-17.199-16.5-32.597-29.6-45.398-12.802-13-28.302-23.102-45.302-29.5-16.296-6.3-34.898-10.7-62.097-11.898C334.648.3 325.949 0 256.449 0s-78.199.3-105.5 1.5c-27.199 1.2-45.898 5.602-62.097 11.898-17.204 6.5-32.602 16.5-45.403 29.602-13 12.8-23.097 28.3-29.5 45.3-6.3 16.302-10.699 34.9-11.898 62.098C.75 177.801.449 186.5.449 256s.301 78.2 1.5 105.5c1.2 27.2 5.602 45.898 11.903 62.102 6.5 17.199 16.597 32.597 29.597 45.398 12.801 13 28.301 23.102 45.301 29.5 16.3 6.3 34.898 10.7 62.102 11.898 27.296 1.204 36 1.5 105.5 1.5s78.199-.296 105.5-1.5c27.199-1.199 45.898-5.597 62.097-11.898a130.934 130.934 0 0074.903-74.898c6.296-16.301 10.699-34.903 11.898-62.102 1.2-27.3 1.5-36 1.5-105.5s-.102-78.2-1.3-105.5zm-46.098 209c-1.102 25-5.301 38.5-8.801 47.5-8.602 22.3-26.301 40-48.602 48.602-9 3.5-22.597 7.699-47.5 8.796-27 1.204-35.097 1.5-103.398 1.5s-76.5-.296-103.403-1.5c-25-1.097-38.5-5.296-47.5-8.796C94.551 451.5 84.45 445 76.25 436.5c-8.5-8.3-15-18.3-19.102-29.398-3.5-9-7.699-22.602-8.796-47.5-1.204-27-1.5-35.102-1.5-103.403s.296-76.5 1.5-103.398c1.097-25 5.296-38.5 8.796-47.5C61.25 94.199 67.75 84.1 76.352 75.898c8.296-8.5 18.296-15 29.398-19.097 9-3.5 22.602-7.7 47.5-8.801 27-1.2 35.102-1.5 103.398-1.5 68.403 0 76.5.3 103.403 1.5 25 1.102 38.5 5.3 47.5 8.8 11.097 4.098 21.199 10.598 29.398 19.098 8.5 8.301 15 18.301 19.102 29.403 3.5 9 7.699 22.597 8.8 47.5 1.2 27 1.5 35.097 1.5 103.398s-.3 76.301-1.5 103.301zm0 0"/><path d="M256.45 124.5c-72.598 0-131.5 58.898-131.5 131.5s58.902 131.5 131.5 131.5c72.6 0 131.5-58.898 131.5-131.5s-58.9-131.5-131.5-131.5zm0 216.8c-47.098 0-85.302-38.198-85.302-85.3s38.204-85.3 85.301-85.3c47.102 0 85.301 38.198 85.301 85.3s-38.2 85.3-85.3 85.3zm167.402-222c0 16.954-13.747 30.7-30.704 30.7-16.953 0-30.699-13.746-30.699-30.7 0-16.956 13.746-30.698 30.7-30.698 16.956 0 30.703 13.742 30.703 30.699zm0 0"/></symbol><symbol viewBox="0 0 24 24" id="linkedin" xmlns="http://www.w3.org/2000/svg"><path d="M23.994 24v-.001H24v-8.802c0-4.306-.927-7.623-5.961-7.623-2.42 0-4.044 1.328-4.707 2.587h-.07V7.976H8.489v16.023h4.97v-7.934c0-2.089.396-4.109 2.983-4.109 2.549 0 2.587 2.384 2.587 4.243V24zM.396 7.977h4.976V24H.396zM2.882 0C1.291 0 0 1.291 0 2.882s1.291 2.909 2.882 2.909 2.882-1.318 2.882-2.909A2.884 2.884 0 002.882 0z"/></symbol><symbol viewBox="0 0 513.64 513.64" id="phone" xmlns="http://www.w3.org/2000/svg"><path d="M499.66 376.96l-71.68-71.68c-25.6-25.6-69.12-15.359-79.36 17.92-7.68 23.041-33.28 35.841-56.32 30.72-51.2-12.8-120.32-79.36-133.12-133.12-7.68-23.041 7.68-48.641 30.72-56.32 33.28-10.24 43.52-53.76 17.92-79.36l-71.68-71.68c-20.48-17.92-51.2-17.92-69.12 0L18.38 62.08c-48.64 51.2 5.12 186.88 125.44 307.2s256 176.641 307.2 125.44l48.64-48.64c17.921-20.48 17.921-51.2 0-69.12z"/></symbol><symbol viewBox="0 0 511.977 511.977" id="pinterest" xmlns="http://www.w3.org/2000/svg"><path d="M262.948 0C122.628 0 48.004 89.92 48.004 187.968c0 45.472 25.408 102.176 66.08 120.16 6.176 2.784 9.536 1.6 10.912-4.128 1.216-4.352 6.56-25.312 9.152-35.2.8-3.168.384-5.92-2.176-8.896-13.504-15.616-24.224-44.064-24.224-70.752 0-68.384 54.368-134.784 146.88-134.784 80 0 135.968 51.968 135.968 126.304 0 84-44.448 142.112-102.208 142.112-31.968 0-55.776-25.088-48.224-56.128 9.12-36.96 27.008-76.704 27.008-103.36 0-23.904-13.504-43.68-41.088-43.68-32.544 0-58.944 32.224-58.944 75.488 0 27.488 9.728 46.048 9.728 46.048S144.676 371.2 138.692 395.488c-10.112 41.12 1.376 107.712 2.368 113.44.608 3.168 4.16 4.16 6.144 1.568 3.168-4.16 42.08-59.68 52.992-99.808 3.968-14.624 20.256-73.92 20.256-73.92 10.72 19.36 41.664 35.584 74.624 35.584 98.048 0 168.896-86.176 168.896-193.12C463.62 76.704 375.876 0 262.948 0z"/></symbol><symbol viewBox="0 0 512 512" id="twitter" xmlns="http://www.w3.org/2000/svg"><path d="M512 97.248c-19.04 8.352-39.328 13.888-60.48 16.576 21.76-12.992 38.368-33.408 46.176-58.016-20.288 12.096-42.688 20.64-66.56 25.408C411.872 60.704 384.416 48 354.464 48c-58.112 0-104.896 47.168-104.896 104.992 0 8.32.704 16.32 2.432 23.936-87.264-4.256-164.48-46.08-216.352-109.792-9.056 15.712-14.368 33.696-14.368 53.056 0 36.352 18.72 68.576 46.624 87.232-16.864-.32-33.408-5.216-47.424-12.928v1.152c0 51.008 36.384 93.376 84.096 103.136-8.544 2.336-17.856 3.456-27.52 3.456-6.72 0-13.504-.384-19.872-1.792 13.6 41.568 52.192 72.128 98.08 73.12-35.712 27.936-81.056 44.768-130.144 44.768-8.608 0-16.864-.384-25.12-1.44C46.496 446.88 101.6 464 161.024 464c193.152 0 298.752-160 298.752-298.688 0-4.64-.16-9.12-.384-13.568 20.832-14.784 38.336-33.248 52.608-54.496z"/></symbol><symbol viewBox="-23 -21 682 682.667" id="whatsapp" xmlns="http://www.w3.org/2000/svg"><path d="M544.387 93.008C484.512 33.063 404.883.035 320.05 0 145.246 0 2.98 142.262 2.91 317.113c-.024 55.895 14.577 110.457 42.331 158.551L.25 640l168.121-44.102c46.324 25.27 98.477 38.586 151.55 38.602h.134c174.785 0 317.066-142.273 317.132-317.133.036-84.742-32.921-164.418-92.8-224.36zM320.05 580.94h-.11c-47.296-.02-93.683-12.73-134.16-36.742l-9.62-5.715-99.766 26.172 26.628-97.27-6.27-9.972c-26.386-41.969-40.32-90.476-40.296-140.281.055-145.332 118.305-263.57 263.7-263.57 70.406.023 136.59 27.476 186.355 77.3s77.156 116.051 77.133 186.485C583.582 462.69 465.34 580.94 320.05 580.94zm144.586-197.418c-7.922-3.968-46.883-23.132-54.149-25.78-7.258-2.645-12.547-3.962-17.824 3.968-5.285 7.93-20.469 25.781-25.094 31.066-4.625 5.29-9.242 5.953-17.168 1.985-7.925-3.965-33.457-12.336-63.726-39.332-23.555-21.012-39.457-46.961-44.082-54.89-4.617-7.938-.04-11.813 3.476-16.173 8.578-10.652 17.168-21.82 19.809-27.105 2.644-5.29 1.32-9.918-.664-13.883-1.977-3.965-17.824-42.969-24.426-58.84-6.437-15.445-12.965-13.36-17.832-13.601-4.617-.231-9.902-.278-15.187-.278-5.282 0-13.868 1.98-21.133 9.918-7.262 7.934-27.73 27.102-27.73 66.106s28.394 76.683 32.355 81.972c3.96 5.29 55.879 85.328 135.367 119.649 18.906 8.172 33.664 13.043 45.176 16.695 18.984 6.031 36.254 5.18 49.91 3.14 15.226-2.277 46.879-19.171 53.488-37.68 6.602-18.51 6.602-34.374 4.617-37.683-1.976-3.304-7.261-5.285-15.183-9.254zm0 0" fill-rule="evenodd"/></symbol><symbol viewBox="0 0 27.571 27.571" id="youtube" xmlns="http://www.w3.org/2000/svg"><path d="M9.342 8.469c0 .833.054 1.457.163 1.873.108.416.289.771.542 1.063.254.293.694.428 1.152.573.457.145 1.394.217 2.055.217.59 0 .86-.084 1.316-.254.455-.17.828-.349 1.118-.706.29-.356.48-.741.569-1.152.088-.411.133-1.058.133-1.938V5.66c0-.694-.049-1.211-.145-1.55a2.746 2.746 0 00-.535-.99c-.261-.32-.631-.58-1.111-.779-.48-.2-.803-.299-1.473-.299-.797 0-1.914.154-2.426.465-.511.31-.866.722-1.063 1.233-.197.512-.295 1.223-.295 2.135v2.594zm2.941-3.421c0-.503.029-.818.09-.949.059-.131.303-.196.479-.196s.419.065.474.196c.053.131.08.446.08.949v4.099c0 .423-.027.699-.084.827s-.426.192-.604.192c-.172 0-.287-.07-.346-.211-.061-.14-.09-.441-.09-.904l.001-4.003zm-7.98 7.055h2.943V7.775L9.449.063 6.594 0c-.405 2.243-.694 3.877-.866 5.152C5.671 4.345 5.42 2.333 4.973 0H2.117l2.186 7.775v4.328zm13.464-.687c.141.261.358.387.654.543.295.158.793.11 1.24.11.395 0 .742.044 1.045-.122.303-.165.559-.33.765-.66l-.052.73h3.035V2.03h-3.025v6.867c0 .802-.021 1.278-.062 1.425-.043.147-.3.222-.521.222-.207 0-.375-.071-.422-.215-.047-.142-.07-.595-.07-1.358V2.03h-2.898v6.882c0 .841.017 1.404.051 1.688.033.283.121.555.26.816zM25.133 14H2.441c-1.24 0-2.242 1.064-2.242 2.379v8.813c0 1.312 1.002 2.379 2.242 2.379h22.691c1.234 0 2.24-1.066 2.24-2.379v-8.813C27.373 15.064 26.367 14 25.133 14zM6.864 18.562h-.913v7.076H3.839v-7.076H2.806v-1.986h4.058v1.986zm6.094 7.075h-2.226l.037-.597a1.5 1.5 0 01-.559.545 1.584 1.584 0 01-.767.182c-.329 0-.686-.058-.902-.173s-.376-.269-.479-.46c-.103-.191-.167-.391-.192-.599s-.038-.62-.038-1.237v-4.721h2.083v4.764c0 .559.017.891.051.996.034.104.316.157.468.157.163 0 .386-.054.416-.162.03-.108.046-.457.046-1.045v-4.731h2.062v7.081zm6.016-2.003c0 .527.007.919-.064 1.177-.069.258-.235.482-.496.672-.258.189-.484.284-.841.284-.257 0-.495-.057-.718-.169-.221-.112-.677-.28-.861-.504l-.141.543h-1.984v-9.062h2.125v2.622c.18-.209.635-.366.856-.469.222-.103.462-.155.723-.155.3 0 .56.047.78.141.219.094.305.226.419.396.116.17.144.335.167.499.023.163.035.005.035.535v3.49zm6.011-1.967h-3.001v2.059c0 .325.024.534.071.627.048.094.222.141.354.141.166 0 .404-.062.46-.187s.083-.366.083-.723v-.948h2.032v.531c0 .444-.028.785-.084 1.024-.056.238-.187.492-.392.763-.207.271-.552.474-.868.609-.315.135-.712.203-1.188.203a2.77 2.77 0 01-1.098-.201c-.354-.134-.691-.316-.888-.549s-.376-.489-.451-.769c-.076-.279-.114-.687-.114-1.222V20.68c0-.628.084-.62.255-.983.169-.362.552-.64.938-.833a2.42 2.42 0 011.207-.291c.613 0 1.203.116 1.603.35.399.233.679.542.839.926.161.385.241.673.241 1.37v.448h.001z"/><path d="M16.842 20.017c-.047-.115-.391-.171-.528-.171-.134 0-.22.049-.26.149-.04.099-.06-.155-.06.246v3.35c0 .386.022.634.067.742.046.108.136.162.269.162.137 0 .479-.056.521-.167.041-.112.062-.381.062-.807v-3.279c0-.373-.025-.112-.071-.225zm5.562-.297c-.15 0-.328.046-.365.138-.036.092-.055-.038-.055.367v.399h.809v-.399c0-.372-.021-.234-.061-.342-.039-.109-.205-.163-.328-.163z"/></symbol></svg>